<?xml version="1.0" standalone="no"?>
<!DOCTYPE svg PUBLIC "-//W3C//DTD SVG 20010904//EN"
 "http://www.w3.org/TR/2001/REC-SVG-20010904/DTD/svg10.dtd">
<svg version="1.0" xmlns="http://www.w3.org/2000/svg"
 width="1024.000000pt" height="1024.000000pt" viewBox="0 0 1024.000000 1024.000000"
 preserveAspectRatio="xMidYMid meet">
<metadata>
Created by potrace 1.16, written by Peter Selinger 2001-2019
</metadata>
<g transform="translate(0.000000,1024.000000) scale(0.100000,-0.100000)"
fill="#000000" stroke="none">
<path d="M2898 7049 c-224 -22 -438 -85 -655 -194 -635 -320 -1041 -957 -1070
-1680 -19 -473 167 -984 492 -1348 311 -350 713 -566 1175 -633 142 -20 438
-15 573 10 405 76 781 290 1067 608 185 206 344 433 672 963 242 391 347 553
476 735 269 381 366 466 681 602 l34 14 -188 210 c-103 115 -267 299 -365 409
-98 110 -189 211 -203 223 l-25 24 -97 -114 c-478 -558 -656 -803 -1050 -1443
-367 -596 -575 -895 -707 -1021 -92 -87 -144 -124 -250 -174 -125 -60 -217
-80 -368 -80 -255 0 -459 82 -643 259 -258 247 -361 595 -276 931 26 104 92
247 153 333 51 71 168 187 239 236 84 57 228 120 327 142 79 18 117 20 230 16
148 -5 245 -29 365 -90 184 -92 273 -182 475 -479 145 -214 156 -227 171 -210
9 9 80 118 156 242 77 124 197 314 266 423 70 109 127 204 127 210 0 18 -152
211 -224 286 -424 438 -973 646 -1558 590z M5756 7051 c-6 -10 46 -71 294
-346 541 -600 1410 -1587 1405 -1595 -10 -16 -1163 -1323 -1527 -1732 -87 -97
-158 -182 -158 -187 0 -8 209 -11 689 -11 l689 0 920 928 c506 510 937 946
957 969 l37 42 -440 448 c-242 246 -672 682 -954 968 l-515 520 -696 3 c-436
1 -698 -1 -701 -7z M5427 4898 c-19 -29 -101 -159 -182 -288 -81 -129 -192
-303 -247 -387 -54 -83 -98 -154 -98 -158 0 -18 657 -814 680 -823 4 -1 78 77
165 175 87 98 259 292 384 431 124 139 227 256 229 261 2 5 -21 17 -50 26 -29
10 -81 30 -115 46 -197 88 -411 307 -651 666 -34 50 -66 94 -72 98 -5 3 -25
-18 -43 -47z"/>
</g>
</svg>
